<?xml version="1.0" encoding="UTF-8" standalone="no"?>
<!-- The icon can be used freely in both personal and commercial projects with no attribution required, but always appreciated. 
You may NOT sub-license, resell, rent, redistribute or otherwise transfer the icon without express written permission from iconmonstr.com -->

<svg
   xmlns:dc="http://purl.org/dc/elements/1.1/"
   xmlns:cc="http://creativecommons.org/ns#"
   xmlns:rdf="http://www.w3.org/1999/02/22-rdf-syntax-ns#"
   xmlns:svg="http://www.w3.org/2000/svg"
   xmlns="http://www.w3.org/2000/svg"
   xmlns:sodipodi="http://sodipodi.sourceforge.net/DTD/sodipodi-0.dtd"
   xmlns:inkscape="http://www.inkscape.org/namespaces/inkscape"
   version="1.1"
   x="0px"
   y="0px"
   width="512px"
   height="512px"
   viewBox="0 0 512 512"
   enable-background="new 0 0 512 512"
   xml:space="preserve"
   id="svg2"
   inkscape:version="0.48.1 r9760"
   sodipodi:docname="ic_alarm_on_pressed.svg"><metadata
   id="metadata9"><rdf:RDF><cc:Work
       rdf:about=""><dc:format>image/svg+xml</dc:format><dc:type
         rdf:resource="http://purl.org/dc/dcmitype/StillImage" /><dc:title /></cc:Work></rdf:RDF></metadata><defs
   id="defs7" /><sodipodi:namedview
   pagecolor="#ffffff"
   bordercolor="#666666"
   borderopacity="1"
   objecttolerance="10"
   gridtolerance="10"
   guidetolerance="10"
   inkscape:pageopacity="0"
   inkscape:pageshadow="2"
   inkscape:window-width="1229"
   inkscape:window-height="776"
   id="namedview5"
   showgrid="false"
   inkscape:zoom="0.5078125"
   inkscape:cx="-93.087952"
   inkscape:cy="256"
   inkscape:window-x="18"
   inkscape:window-y="329"
   inkscape:window-maximized="0"
   inkscape:current-layer="svg2" />
<path
   sodipodi:type="arc"
   style="fill:#cccccc;fill-opacity:1;stroke:#33b5e5;stroke-width:7.70428013999999983;stroke-miterlimit:4;stroke-dasharray:none;stroke-opacity:1"
   id="path2986"
   sodipodi:cx="384"
   sodipodi:cy="429.2923"
   sodipodi:rx="194.95384"
   sodipodi:ry="194.95384"
   d="m 578.95384,429.2923 a 194.95384,194.95384 0 1 1 -389.90768,0 194.95384,194.95384 0 1 1 389.90768,0 z"
   transform="matrix(1.2979798,0,0,1.2979798,-241.43963,-300.22813)" /><path
   id="time-8-icon"
   d="M 331.08212,288.72379 H 231.67454 V 179.51427 h 31.61399 v 77.60547 h 67.79359 v 31.60405 z m 43.05386,76.11658 c 25.81197,-28.21714 41.561,-65.78643 41.561,-107.03587 0,-87.62571 -71.05685,-158.661076 -158.71192,-158.661076 -87.65421,0 -158.711051,71.035366 -158.711051,158.661076 0,41.24855 15.749911,78.81786 41.560101,107.03587 -7.94476,19.76131 -18.36509,45.68278 -25.41238,63.20985 -1.06346,2.64597 -0.27837,5.67557 1.93548,7.47348 2.21386,1.79793 5.34453,1.94805 7.71557,0.36258 16.15037,-10.80245 40.17349,-26.86872 57.48743,-38.44897 22.4354,12.13596 48.1244,19.03004 75.42485,19.03004 27.30044,0 52.99032,-6.89408 75.42572,-19.03004 l 57.48742,38.44897 c 2.37193,1.58634 5.50083,1.44237 7.71557,-0.35468 2.21561,-1.79703 3.00158,-4.82751 1.93724,-7.47524 l -25.41503,-63.21599 z m -117.15092,12.12191 c -65.87392,0 -119.19356,-53.29406 -119.19356,-119.1569 0,-65.85317 53.30999,-119.15603 119.19356,-119.15603 65.87391,0 119.19443,53.29146 119.19443,119.15603 0,65.85054 -53.30911,119.1569 -119.19443,119.1569 z M 185.74379,87.072434 c -10.75842,-6.401575 -23.3206,-10.087835 -36.74953,-10.087835 -39.76952,0 -72.009644,32.229981 -72.009644,71.986991 0,13.21839 3.572381,25.59752 9.794191,36.24281 18.928003,-44.18509 54.585073,-79.56581 98.964983,-98.141966 z m 241.44752,98.141096 c 6.2218,-10.6453 9.7933,-23.02442 9.7933,-36.24194 0,-39.75701 -32.24013,-71.986991 -72.00965,-71.986991 -13.42893,0 -25.9911,3.68626 -36.74864,10.087835 44.3799,18.575276 80.03698,53.956876 98.96499,98.141096 z"
   inkscape:connector-curvature="0"
   style="fill:#005498;fill-opacity:1;fill-rule:nonzero" />
</svg>