<?xml version="1.0" encoding="UTF-8" standalone="no"?>
<!-- The icon can be used freely in both personal and commercial projects with no attribution required, but always appreciated. 
You may NOT sub-license, resell, rent, redistribute or otherwise transfer the icon without express written permission from iconmonstr.com -->

<svg
   xmlns:dc="http://purl.org/dc/elements/1.1/"
   xmlns:cc="http://creativecommons.org/ns#"
   xmlns:rdf="http://www.w3.org/1999/02/22-rdf-syntax-ns#"
   xmlns:svg="http://www.w3.org/2000/svg"
   xmlns="http://www.w3.org/2000/svg"
   xmlns:sodipodi="http://sodipodi.sourceforge.net/DTD/sodipodi-0.dtd"
   xmlns:inkscape="http://www.inkscape.org/namespaces/inkscape"
   version="1.1"
   x="0px"
   y="0px"
   width="512px"
   height="512px"
   viewBox="0 0 512 512"
   enable-background="new 0 0 512 512"
   xml:space="preserve"
   id="svg2"
   inkscape:version="0.48.3.1 r9886"
   sodipodi:docname="ic_launcher.svg"><metadata
   id="metadata9"><rdf:RDF><cc:Work
       rdf:about=""><dc:format>image/svg+xml</dc:format><dc:type
         rdf:resource="http://purl.org/dc/dcmitype/StillImage" /><dc:title></dc:title></cc:Work></rdf:RDF></metadata><defs
   id="defs7" /><sodipodi:namedview
   pagecolor="#ffffff"
   bordercolor="#666666"
   borderopacity="1"
   objecttolerance="10"
   gridtolerance="10"
   guidetolerance="10"
   inkscape:pageopacity="0"
   inkscape:pageshadow="2"
   inkscape:window-width="1301"
   inkscape:window-height="744"
   id="namedview5"
   showgrid="false"
   inkscape:zoom="1.1816406"
   inkscape:cx="256"
   inkscape:cy="256"
   inkscape:window-x="65"
   inkscape:window-y="24"
   inkscape:window-maximized="1"
   inkscape:current-layer="svg2" />
<path
   style="fill:#000000;fill-opacity:1;stroke:#000000;stroke-width:1.03015542;stroke-miterlimit:4;stroke-opacity:1;stroke-dasharray:none;stroke-dashoffset:0"
   d="M 256 0.5 C 114.89957 0.5 0.5 114.89957 0.5 256 C 0.5 397.10043 114.89957 511.5 256 511.5 C 397.10043 511.5 511.5 397.10043 511.5 256 C 511.5 114.89957 397.10043 0.5 256 0.5 z M 157.90625 92.4375 C 170.10454 92.4375 181.50874 95.808242 191.28125 101.625 C 150.96834 118.50415 118.59968 150.63266 101.40625 190.78125 C 95.754606 181.10845 92.5 169.85459 92.5 157.84375 C 92.5 121.71872 121.78121 92.4375 157.90625 92.4375 z M 354.09375 92.4375 C 390.21879 92.4375 419.5 121.71872 419.5 157.84375 C 419.5 169.85379 416.24539 181.10845 410.59375 190.78125 C 393.40032 150.63346 361.03166 118.50335 320.71875 101.625 C 330.49046 95.808242 341.89546 92.4375 354.09375 92.4375 z M 256 112.59375 C 335.62233 112.59375 400.15625 177.12927 400.15625 256.75 C 400.15625 294.23111 385.85278 328.36061 362.40625 354 L 385.5 411.4375 C 386.46681 413.84334 385.76257 416.61713 383.75 418.25 C 381.73822 419.88288 378.87332 420.00393 376.71875 418.5625 L 324.5 383.625 C 304.12059 394.65229 280.79862 400.90625 256 400.90625 C 231.20138 400.90625 207.87941 394.65229 187.5 383.625 C 171.77272 394.14735 149.95159 408.74691 135.28125 418.5625 C 133.12749 420.00313 130.26098 419.85243 128.25 418.21875 C 126.23902 416.58508 125.53399 413.84174 126.5 411.4375 C 132.90147 395.5116 142.37704 371.95602 149.59375 354 C 126.14881 328.35981 111.84375 294.23032 111.84375 256.75 C 111.84375 177.12927 176.37847 112.59375 256 112.59375 z M 256 148.46875 C 196.15402 148.46875 147.71875 196.9128 147.71875 256.75 C 147.71875 316.59597 196.1628 365.03125 256 365.03125 C 315.84757 365.03125 364.28125 316.58481 364.28125 256.75 C 364.28125 196.90243 315.8372 148.46875 256 148.46875 z M 233 185.59375 L 261.71875 185.59375 L 261.71875 256.125 L 323.3125 256.125 L 323.3125 284.84375 L 233 284.84375 L 233 185.59375 z "
   id="path2986" />
</svg>