<?xml version="1.0" encoding="UTF-8" standalone="no"?>
<!-- The icon can be used freely in both personal and commercial projects with no attribution required, but always appreciated. 
You may NOT sub-license, resell, rent, redistribute or otherwise transfer the icon without express written permission from iconmonstr.com -->

<svg
   xmlns:dc="http://purl.org/dc/elements/1.1/"
   xmlns:cc="http://creativecommons.org/ns#"
   xmlns:rdf="http://www.w3.org/1999/02/22-rdf-syntax-ns#"
   xmlns:svg="http://www.w3.org/2000/svg"
   xmlns="http://www.w3.org/2000/svg"
   xmlns:xlink="http://www.w3.org/1999/xlink"
   xmlns:sodipodi="http://sodipodi.sourceforge.net/DTD/sodipodi-0.dtd"
   xmlns:inkscape="http://www.inkscape.org/namespaces/inkscape"
   version="1.1"
   x="0px"
   y="0px"
   width="512px"
   height="512px"
   viewBox="0 0 512 512"
   enable-background="new 0 0 512 512"
   xml:space="preserve"
   id="svg2"
   inkscape:version="0.48.4 r9939"
   sodipodi:docname="ic_launcher.svg.2014_01_01_14_49_35.0.svg"><metadata
     id="metadata9"><rdf:RDF><cc:Work
         rdf:about=""><dc:format>image/svg+xml</dc:format><dc:type
           rdf:resource="http://purl.org/dc/dcmitype/StillImage" /><dc:title></dc:title></cc:Work></rdf:RDF></metadata><defs
     id="defs7"><linearGradient
       id="linearGradient3847"
       inkscape:collect="always"><stop
         id="stop3849"
         offset="0"
         style="stop-color:#d2d2d2;stop-opacity:1" /><stop
         id="stop3851"
         offset="1"
         style="stop-color:#969696;stop-opacity:1" /></linearGradient><linearGradient
       inkscape:collect="always"
       id="linearGradient3833"><stop
         style="stop-color:#f0f0f0;stop-opacity:1"
         offset="0"
         id="stop3835" /><stop
         style="stop-color:#c7c7c7;stop-opacity:1"
         offset="1"
         id="stop3837" /></linearGradient><linearGradient
       inkscape:collect="always"
       id="linearGradient4565"><stop
         style="stop-color:#c8c8c8;stop-opacity:1"
         offset="0"
         id="stop4567" /><stop
         style="stop-color:#b0b0b0;stop-opacity:1"
         offset="1"
         id="stop4569" /></linearGradient><linearGradient
       inkscape:collect="always"
       xlink:href="#linearGradient4565"
       id="linearGradient4571"
       x1="387.88547"
       y1="265.31046"
       x2="387.88547"
       y2="394.46375"
       gradientUnits="userSpaceOnUse" /><linearGradient
       inkscape:collect="always"
       xlink:href="#linearGradient3833"
       id="linearGradient3839"
       x1="387.33725"
       y1="264.21405"
       x2="387.33725"
       y2="319.85553"
       gradientUnits="userSpaceOnUse" /><linearGradient
       inkscape:collect="always"
       xlink:href="#linearGradient3847"
       id="linearGradient3845"
       gradientUnits="userSpaceOnUse"
       x1="387.88547"
       y1="265.31046"
       x2="387.88547"
       y2="393.94376" /></defs><sodipodi:namedview
     pagecolor="#ffffff"
     bordercolor="#666666"
     borderopacity="1"
     objecttolerance="10"
     gridtolerance="10"
     guidetolerance="10"
     inkscape:pageopacity="0"
     inkscape:pageshadow="2"
     inkscape:window-width="1307"
     inkscape:window-height="744"
     id="namedview5"
     showgrid="false"
     inkscape:zoom="1.1777344"
     inkscape:cx="256"
     inkscape:cy="256"
     inkscape:window-x="59"
     inkscape:window-y="24"
     inkscape:window-maximized="1"
     inkscape:current-layer="svg2" /><path
     transform="matrix(1.5488645,0,0,1.6296098,-347.64106,-409.29241)"
     d="m 526.43451,399.07132 a 136.70316,136.70316 0 1 1 -273.40631,0 136.70316,136.70316 0 1 1 273.40631,0 z"
     sodipodi:ry="136.70316"
     sodipodi:rx="136.70316"
     sodipodi:cy="399.07132"
     sodipodi:cx="389.73135"
     id="path3753"
     style="fill:url(#linearGradient3845);fill-opacity:1"
     sodipodi:type="arc" /><path
     sodipodi:type="arc"
     style="fill:url(#linearGradient3839);fill-opacity:1"
     id="path3754"
     sodipodi:cx="389.73135"
     sodipodi:cy="399.07132"
     sodipodi:rx="136.70316"
     sodipodi:ry="136.70316"
     d="m 526.43451,399.07132 a 136.70316,136.70316 0 1 1 -273.40631,0 136.70316,136.70316 0 1 1 273.40631,0 z"
     transform="matrix(1.5488645,0,0,1.5488645,-347.64106,-362.1074)" /><path
     id="time-8-icon"
     d="m 316.72703,282.01204 h -81.47005 v -89.50331 h 25.90943 v 63.60203 h 55.56062 v 25.90128 z m 35.28506,62.38179 c 21.15433,-23.12552 34.06156,-53.91566 34.06156,-87.72187 0,-71.81419 -58.23507,-130.03163 -130.07329,-130.03163 -71.83752,0 -130.07257,58.21744 -130.07257,130.03163 0,33.80549 12.90793,64.59563 34.06084,87.72187 -6.51121,16.19551 -15.05124,37.43959 -20.82687,51.804 -0.87159,2.16851 -0.22815,4.65144 1.58623,6.12493 1.81437,1.47349 4.38013,1.59654 6.32333,0.29716 13.23613,-8.8532 32.92443,-22.02042 47.11416,-31.51108 18.38705,9.9461 39.44064,15.59616 61.81488,15.59616 22.37424,0 43.42853,-5.65006 61.81559,-15.59616 l 47.11416,31.51108 c 1.94393,1.30009 4.50823,1.1821 6.32334,-0.29068 1.81581,-1.47279 2.45995,-3.95642 1.58767,-6.12638 l -20.82903,-51.80903 z m -96.01173,9.93459 c -53.98735,0 -97.68577,-43.67748 -97.68577,-97.65575 0,-53.97035 43.6905,-97.65502 97.68577,-97.65502 53.98734,0 97.68649,43.67533 97.68649,97.65502 0,53.9682 -43.68978,97.65575 -97.68649,97.65575 z m -58.3862,-237.58093 c -8.81712,-5.24645 -19.11253,-8.26754 -30.11828,-8.26754 -32.59335,0 -59.01593,26.41426 -59.01593,58.99735 0,10.83321 2.92776,20.9786 8.02688,29.70301 15.51255,-36.21214 44.73552,-65.20863 81.10733,-80.43282 z m 197.87972,80.43211 c 5.09913,-8.72442 8.02617,-18.8698 8.02617,-29.7023 0,-32.58309 -26.42259,-58.99735 -59.01594,-58.99735 -11.00575,0 -21.30115,3.02109 -30.11756,8.26754 36.37182,15.22347 65.59477,44.22068 81.10733,80.43211 z"
     style="fill:#0a3557;fill-opacity:1"
     inkscape:connector-curvature="0" /><path
     inkscape:connector-curvature="0"
     style="fill:#0a3557;fill-opacity:1"
     d="M -44.984413,816.93741 H -126.45446 V 727.4341 h 25.90943 v 63.60203 h 55.560617 v 25.90128 z M -9.6993528,879.3192 C 11.454977,856.19368 24.362207,825.40354 24.362207,791.59733 c 0,-71.81419 -58.23507,-130.03163 -130.073287,-130.03163 -71.83752,0 -130.07257,58.21744 -130.07257,130.03163 0,33.80549 12.90793,64.59563 34.06084,87.72187 -6.51121,16.19551 -15.05124,37.43959 -20.82687,51.804 -0.87159,2.16851 -0.22815,4.65144 1.58623,6.12493 1.81437,1.47349 4.38013,1.59654 6.32333,0.29716 13.23613,-8.8532 32.92443,-22.02042 47.11416,-31.51108 18.38705,9.9461 39.44064,15.59616 61.81488,15.59616 22.374237,0 43.428527,-5.65006 61.815587,-15.59616 l 47.1141602,31.51108 c 1.94393,1.30009 4.50823,1.1821 6.32334,-0.29068 1.8158098,-1.47279 2.4599498,-3.95642 1.5876698,-6.12638 L -9.6993528,879.3192 z m -96.0117272,9.93459 c -53.98735,0 -97.68577,-43.67748 -97.68577,-97.65575 0,-53.97035 43.6905,-97.65502 97.68577,-97.65502 53.987337,0 97.6864872,43.67533 97.6864872,97.65502 0,53.9682 -43.6897802,97.65575 -97.6864872,97.65575 z m -58.3862,-237.58093 c -8.81712,-5.24645 -19.11253,-8.26754 -30.11828,-8.26754 -32.59335,0 -59.01593,26.41426 -59.01593,58.99735 0,10.83321 2.92776,20.9786 8.02688,29.70301 15.51255,-36.21214 44.73552,-65.20863 81.10733,-80.43282 z m 197.879717,80.43211 c 5.09913,-8.72442 8.02617,-18.8698 8.02617,-29.7023 0,-32.58309 -26.42259,-58.99735 -59.01594,-58.99735 -11.00575,0 -21.30115,3.02109 -30.11756,8.26754 36.37182,15.22347 65.59477,44.22068 81.10733,80.43211 z"
     id="path13" /></svg>