<?xml version="1.0" encoding="UTF-8" standalone="no"?>
<!-- The icon can be used freely in both personal and commercial projects with no attribution required, but always appreciated. 
You may NOT sub-license, resell, rent, redistribute or otherwise transfer the icon without express written permission from iconmonstr.com -->

<svg
   xmlns:dc="http://purl.org/dc/elements/1.1/"
   xmlns:cc="http://creativecommons.org/ns#"
   xmlns:rdf="http://www.w3.org/1999/02/22-rdf-syntax-ns#"
   xmlns:svg="http://www.w3.org/2000/svg"
   xmlns="http://www.w3.org/2000/svg"
   xmlns:sodipodi="http://sodipodi.sourceforge.net/DTD/sodipodi-0.dtd"
   xmlns:inkscape="http://www.inkscape.org/namespaces/inkscape"
   version="1.1"
   x="0px"
   y="0px"
   width="512px"
   height="512px"
   viewBox="0 0 512 512"
   enable-background="new 0 0 512 512"
   xml:space="preserve"
   id="svg2"
   inkscape:version="0.48.4 r9939"
   sodipodi:docname="widget_normal.svg"><metadata
     id="metadata9"><rdf:RDF><cc:Work
         rdf:about=""><dc:format>image/svg+xml</dc:format><dc:type
           rdf:resource="http://purl.org/dc/dcmitype/StillImage" /><dc:title /></cc:Work></rdf:RDF></metadata><defs
     id="defs7"><filter
       inkscape:collect="always"
       id="filter3759"><feGaussianBlur
         inkscape:collect="always"
         stdDeviation="3.2808757"
         id="feGaussianBlur3761" /></filter></defs><sodipodi:namedview
     pagecolor="#ffffff"
     bordercolor="#666666"
     borderopacity="1"
     objecttolerance="10"
     gridtolerance="10"
     guidetolerance="10"
     inkscape:pageopacity="0"
     inkscape:pageshadow="2"
     inkscape:window-width="1307"
     inkscape:window-height="744"
     id="namedview5"
     showgrid="false"
     inkscape:zoom="1.1777344"
     inkscape:cx="256"
     inkscape:cy="256"
     inkscape:window-x="59"
     inkscape:window-y="24"
     inkscape:window-maximized="1"
     inkscape:current-layer="svg2" /><path
     transform="matrix(1.7848893,0,0,1.7848893,-439.62732,-456.29813)"
     d="m 526.43451,399.07132 a 136.70316,136.70316 0 1 1 -273.40631,0 136.70316,136.70316 0 1 1 273.40631,0 z"
     sodipodi:ry="136.70316"
     sodipodi:rx="136.70316"
     sodipodi:cy="399.07132"
     sodipodi:cx="389.73135"
     id="path3756"
     style="fill:#0a3557;fill-opacity:0.54901960999999999;filter:url(#filter3759)"
     sodipodi:type="arc" /><g
     id="g2984"><path
       transform="matrix(1.7409986,0,0,1.7409986,-422.52174,-438.78261)"
       d="m 526.43451,399.07132 a 136.70316,136.70316 0 1 1 -273.40631,0 136.70316,136.70316 0 1 1 273.40631,0 z"
       sodipodi:ry="136.70316"
       sodipodi:rx="136.70316"
       sodipodi:cy="399.07132"
       sodipodi:cx="389.73135"
       id="path3754"
       style="fill:#d6d6d6;fill-opacity:1"
       sodipodi:type="arc" /></g><path
     id="time-8-icon"
     d="M 324.33435,285.27059 H 232.65848 V 184.55513 h 29.15514 v 71.56951 h 62.52073 v 29.14595 z m 39.70526,70.1964 c 23.80434,-26.02246 38.32847,-60.66972 38.32847,-98.71085 0,-80.81041 -65.53022,-146.32079 -146.36768,-146.32079 -80.83665,0 -146.36686,65.51038 -146.36686,146.32079 0,38.04032 14.52492,72.68758 38.32767,98.71085 -7.32686,18.22433 -16.93671,42.12969 -23.43587,58.29353 -0.98076,2.44016 -0.25673,5.23413 1.78495,6.8922 2.04166,1.65809 4.92882,1.79655 7.11546,0.33438 14.89422,-9.96224 37.0489,-24.77892 53.01618,-35.45849 20.69042,11.19206 44.38139,17.54991 69.55847,17.54991 25.17709,0 48.86885,-6.35785 69.55928,-17.54991 l 53.01619,35.45849 c 2.18745,1.46297 5.07298,1.3302 7.11546,-0.32709 2.04328,-1.65728 2.76812,-4.45204 1.78657,-6.89383 l -23.43829,-58.29919 z m -108.03921,11.1791 c -60.75037,0 -109.92293,-49.14898 -109.92293,-109.88915 0,-60.73126 49.16363,-109.88833 109.92293,-109.88833 60.75038,0 109.92375,49.14656 109.92375,109.88833 0,60.72884 -49.16284,109.88915 -109.92375,109.88915 z M 190.30011,99.303227 C 180.37847,93.399553 168.79335,90 156.4089,90 c -36.67633,0 -66.408901,29.7232 -66.408901,66.38801 0,12.19029 3.294531,23.6066 9.032423,33.42392 17.455808,-40.74847 50.339558,-73.37737 91.267688,-90.508703 z M 412.96838,189.81113 C 418.70628,179.9938 422,168.57748 422,156.38801 422,119.7232 392.26743,90 355.5911,90 c -12.38445,0 -23.96957,3.399553 -33.89043,9.303227 40.92814,17.130523 73.81188,49.760233 91.26771,90.507903 z"
     style="fill:#0a3557;fill-opacity:1"
     inkscape:connector-curvature="0" /></svg>